<?xml version="1.0" encoding="utf-8"?>
<!-- Generator: Adobe Illustrator 24.0.0, SVG Export Plug-In . SVG Version: 6.00 Build 0)  -->
<svg version="1.1" id="Layer_1" xmlns="http://www.w3.org/2000/svg" xmlns:xlink="http://www.w3.org/1999/xlink" x="0px" y="0px"
	 viewBox="0 0 64 64" style="enable-background:new 0 0 64 64;" xml:space="preserve">
<style type="text/css">
	.st0{fill:#FFFFFF;fill-opacity:0;}
	.st1{opacity:0.6;}
	.st2{fill:#FFFFFF;enable-background:new    ;}
	.st3{fill:#FFFFFF;}
</style>
<g id="icon-m-headphone">
	<rect id="icon-m-headphone_1_" class="st0" width="64" height="64"/>
	<g class="st1">
		<path class="st2" d="M50.3,41.5c-0.2,0-0.3,0-0.5-0.1c-0.5-0.3-0.7-0.9-0.4-1.4c1.6-2.9,2.5-6.3,2.5-9.6c0-11-9-20-20-20
			s-20,9-20,20c0,3.4,0.8,6.7,2.5,9.6c0.3,0.5,0.1,1.1-0.4,1.4c-0.5,0.3-1.1,0.1-1.4-0.4c-1.8-3.2-2.7-6.9-2.7-10.6
			c0-12.2,9.9-22,22-22c12.1,0,22,9.9,22,22c0,3.7-0.9,7.3-2.7,10.6C51,41.3,50.7,41.5,50.3,41.5z"/>
		<path class="st3" d="M21.1,53.6c-2,0-3.8-1.2-4.6-3.1l-3.9-9.3c-1.1-2.5,0.1-5.5,2.7-6.5l1.3-0.6c0.6-0.3,1.3-0.4,1.9-0.4
			c2,0,3.9,1.2,4.6,3.1l3.9,9.3c1.1,2.5-0.1,5.5-2.7,6.5L23,53.3C22.4,53.5,21.8,53.6,21.1,53.6z M18.5,35.8c-0.4,0-0.8,0.1-1.1,0.2
			l-1.3,0.6c-1.5,0.6-2.3,2.4-1.6,3.9l3.9,9.3c0.5,1.1,1.6,1.8,2.8,1.8c0.4,0,0.8-0.1,1.1-0.2l1.3-0.6c1.5-0.6,2.3-2.4,1.6-3.9
			l-3.9-9.3C20.8,36.5,19.8,35.8,18.5,35.8z"/>
		<path class="st3" d="M42.7,53.6L42.7,53.6c-0.7,0-1.3-0.1-1.9-0.4l-1.3-0.6c-1.2-0.5-2.2-1.5-2.7-2.7s-0.5-2.6,0-3.8l3.9-9.3
			c0.8-1.9,2.6-3.1,4.6-3.1c0.7,0,1.3,0.1,1.9,0.4l1.3,0.6c2.5,1.1,3.8,4,2.7,6.5l-3.9,9.3C46.6,52.4,44.7,53.6,42.7,53.6z
			 M45.3,35.8c-1.2,0-2.3,0.7-2.8,1.8l-3.9,9.3c-0.3,0.7-0.3,1.6,0,2.3c0.3,0.7,0.9,1.3,1.6,1.6l1.3,0.6c0.4,0.2,0.7,0.2,1.1,0.2
			c1.2,0,2.3-0.7,2.8-1.8l3.9-9.3c0.3-0.7,0.3-1.6,0-2.3s-0.9-1.3-1.6-1.6L46.4,36C46,35.8,45.7,35.8,45.3,35.8z"/>
	</g>
</g>
<path class="st3" d="M6.8,58.1c-0.3,0-0.5-0.1-0.7-0.3c-0.4-0.4-0.4-1,0-1.4L56.2,6.2c0.4-0.4,1-0.4,1.4,0s0.4,1,0,1.4L7.5,57.8
	C7.3,58,7.1,58.1,6.8,58.1z"/>
</svg>
