<?xml version="1.0" encoding="utf-8"?>
<!-- Generator: Adobe Illustrator 24.0.0, SVG Export Plug-In . SVG Version: 6.00 Build 0)  -->
<svg version="1.1" id="Слой_1" xmlns="http://www.w3.org/2000/svg" xmlns:xlink="http://www.w3.org/1999/xlink" x="0px" y="0px"
	 viewBox="0 0 64 64" style="enable-background:new 0 0 64 64;" xml:space="preserve">
<style type="text/css">
	.st0{opacity:0.4;}
	.st1{fill:#FFFFFF;}
</style>
<g class="st0">
	<path class="st1" d="M12,26.8L12,26.8c0-0.8,0.2-1.6,0.5-2.3c0.2-0.5,0.8-0.7,1.3-0.5c0.5,0.2,0.7,0.8,0.5,1.3
		c-0.2,0.5-0.3,1-0.3,1.5c0,0.6-0.4,1-1,1S12,27.4,12,26.8z M12,37.2v-0.4c0-0.6,0.4-1,1-1s1,0.4,1,1v0.4c0,0.4,0.1,0.8,0.2,1.2
		c0.2,0.5-0.1,1.1-0.6,1.3s-1.1-0.1-1.3-0.6C12.1,38.5,12,37.8,12,37.2z M12,32.8v-2c0-0.6,0.4-1,1-1s1,0.4,1,1v2c0,0.6-0.4,1-1,1
		S12,33.3,12,32.8z M14.9,41.6c0-0.1,0-0.3,0.1-0.4c0.2-0.5,0.8-0.7,1.3-0.5c0.5,0.2,1,0.3,1.5,0.3c0.6,0,1,0.4,1,1s-0.4,1-1,1h-0.1
		c-0.8,0-1.6-0.2-2.3-0.5C15.1,42.3,14.9,42,14.9,41.6z M15.3,22.3c0-0.4,0.3-0.8,0.7-0.9c0.6-0.2,1.2-0.3,1.9-0.3h0.4
		c0.6,0,1,0.4,1,1c0,0.6-0.4,1-1,1h-0.4c-0.4,0-0.8,0.1-1.2,0.2c-0.5,0.2-1.1-0.1-1.3-0.6C15.3,22.5,15.3,22.4,15.3,22.3z M20.9,42
		c0-0.6,0.4-1,1-1h2c0.6,0,1,0.4,1,1s-0.4,1-1,1h-2C21.3,43,20.9,42.6,20.9,42z M21.2,22c0-0.6,0.4-1,1-1h2c0.6,0,1,0.4,1,1
		s-0.4,1-1,1h-2C21.7,23,21.2,22.6,21.2,22z M26.9,42c0-0.6,0.4-1,1-1h2c0.6,0,1,0.4,1,1s-0.4,1-1,1h-2C27.3,43,26.9,42.6,26.9,42z
		 M27.2,22c0-0.6,0.4-1,1-1h2c0.6,0,1,0.4,1,1s-0.4,1-1,1h-2C27.7,23,27.2,22.6,27.2,22z M32.8,42c0-0.6,0.4-1,1-1h2
		c0.6,0,1,0.4,1,1s-0.4,1-1,1h-2C33.3,43,32.8,42.6,32.8,42z M33.2,22c0-0.6,0.4-1,1-1h2c0.6,0,1,0.4,1,1s-0.4,1-1,1h-2
		C33.6,23,33.2,22.6,33.2,22z M38.8,42c0-0.6,0.4-1,1-1h2c0.6,0,1,0.4,1,1s-0.4,1-1,1h-2C39.2,43,38.8,42.6,38.8,42z M39.2,22
		c0-0.6,0.4-1,1-1h2c0.6,0,1,0.4,1,1s-0.4,1-1,1h-2C39.6,23,39.2,22.6,39.2,22z M44.8,42c0-0.6,0.4-1,1-1h0.4c0.4,0,0.8-0.1,1.2-0.2
		c0.5-0.2,1.1,0.1,1.3,0.6c0.2,0.5-0.1,1.1-0.6,1.3c-0.6,0.2-1.2,0.3-1.9,0.3h-0.4C45.2,43,44.8,42.6,44.8,42z M45.2,22
		c0-0.6,0.4-1,1-1h0c0.8,0,1.6,0.2,2.3,0.5c0.5,0.2,0.7,0.8,0.5,1.3c-0.2,0.5-0.8,0.7-1.3,0.5c-0.5-0.2-1-0.3-1.5-0.3
		C45.6,23,45.2,22.6,45.2,22z M49.6,39.1c0-0.1,0-0.3,0.1-0.4c0.2-0.5,0.3-1,0.3-1.5c0-0.6,0.4-1,1-1c0.6,0,1,0.4,1,1v0
		c0,0.8-0.2,1.6-0.5,2.3c-0.2,0.5-0.8,0.7-1.3,0.5C49.8,39.9,49.6,39.5,49.6,39.1z M49.7,25.2c0-0.4,0.3-0.8,0.7-0.9
		c0.5-0.2,1.1,0.1,1.3,0.6c0.2,0.6,0.3,1.3,0.3,1.9v0.4c0,0.6-0.4,1-1,1c-0.6,0-1-0.4-1-1v-0.4c0-0.4-0.1-0.8-0.2-1.2
		C49.8,25.5,49.7,25.4,49.7,25.2z M50,33.2v-2c0-0.6,0.4-1,1-1c0.6,0,1,0.4,1,1v2c0,0.6-0.4,1-1,1C50.4,34.2,50,33.7,50,33.2z"/>
</g>
<g>
	<path class="st1" d="M53,23c1.7,0,3,1.3,3,3v12c0,1.7-1.3,3-3,3H11c-1.7,0-3-1.3-3-3V26c0-1.7,1.3-3,3-3H53 M53,21H11
		c-2.8,0-5,2.3-5,5v12c0,2.8,2.3,5,5,5h42c2.8,0,5-2.3,5-5V26C58,23.3,55.8,21,53,21L53,21z"/>
</g>
</svg>
