<?xml version="1.0" encoding="utf-8"?>
<!-- Generator: Adobe Illustrator 26.2.1, SVG Export Plug-In . SVG Version: 6.00 Build 0)  -->
<svg version="1.1" id="Layer_1" xmlns="http://www.w3.org/2000/svg" xmlns:xlink="http://www.w3.org/1999/xlink" x="0px" y="0px"
	 viewBox="0 0 64 64" style="enable-background:new 0 0 64 64;" xml:space="preserve">
<style type="text/css">
	.st0{fill-opacity:0;}
	.st1{opacity:0.6;}
	.st2{fill:#FFFFFF;}
</style>
<g>
	<rect class="st0" width="64" height="64"/>
	<g class="st1">
		<path class="st2" d="M32.4,56.5c-13.5,0-24.5-11-24.5-24.5c0-13.5,11-24.5,24.5-24.5C37,7.5,42.3,8,47,11.8
			c0.3,0.2,0.4,0.6,0.4,0.9c-0.1,0.4-0.3,0.7-0.6,0.8l-13,4.6c-0.3,0.1-0.6,0.1-0.9-0.1c-0.3-0.2-0.4-0.5-0.4-0.8V9.5
			C20,9.5,9.9,19.6,9.9,32c0,12.4,10.1,22.5,22.5,22.5c12.4,0,22.5-10.1,22.5-22.5c0-4.7-1.5-9.3-4.2-13.1c-0.3-0.5-0.2-1.1,0.2-1.4
			c0.5-0.3,1.1-0.2,1.4,0.2c3,4.2,4.6,9.1,4.6,14.3C56.9,45.5,45.9,56.5,32.4,56.5z M34.4,15.8l9.9-3.5c-2.7-1.7-5.7-2.5-9.9-2.7
			V15.8z"/>
	</g>
</g>
<path class="st2" d="M27.4,24.2c0-1.4,0.9-1.8,2-1l10.1,7.4c1.1,0.8,1.1,2.1,0,2.9l-10.1,7.4c-1.1,0.8-2,0.4-2-1V24.2z"/>
</svg>
