<?xml version="1.0" encoding="utf-8"?>
<!-- Generator: Adobe Illustrator 24.0.0, SVG Export Plug-In . SVG Version: 6.00 Build 0)  -->
<svg version="1.1" id="Слой_1" xmlns="http://www.w3.org/2000/svg" xmlns:xlink="http://www.w3.org/1999/xlink" x="0px" y="0px"
	 viewBox="0 0 64 64" style="enable-background:new 0 0 64 64;" xml:space="preserve">
<style type="text/css">
	.st0{opacity:0.4;}
	.st1{fill:#FFFFFF;}
</style>
<g class="st0">
	<path class="st1" d="M6,20.8L6,20.8c0-0.8,0.2-1.6,0.5-2.3C6.7,18,7.3,17.7,7.8,18c0.5,0.2,0.7,0.8,0.5,1.3c-0.2,0.5-0.3,1-0.3,1.5
		c0,0.6-0.4,1-1,1S6,21.4,6,20.8z M6,43.2v-0.4c0-0.6,0.4-1,1-1s1,0.4,1,1v0.4c0,0.4,0.1,0.8,0.2,1.2c0.2,0.5-0.1,1.1-0.6,1.3
		s-1.1-0.1-1.3-0.6C6.1,44.5,6,43.8,6,43.2z M6,38.8v-2c0-0.6,0.4-1,1-1s1,0.4,1,1v2c0,0.6-0.4,1-1,1S6,39.3,6,38.8z M6,32.8v-2
		c0-0.6,0.4-1,1-1s1,0.4,1,1v2c0,0.6-0.4,1-1,1S6,33.3,6,32.8z M6,26.8v-2c0-0.6,0.4-1,1-1s1,0.4,1,1v2c0,0.6-0.4,1-1,1
		S6,27.4,6,26.8z M8.9,47.6c0-0.1,0-0.3,0.1-0.4c0.2-0.5,0.8-0.7,1.3-0.5c0.5,0.2,1,0.3,1.5,0.3c0.6,0,1,0.4,1,1s-0.4,1-1,1h-0.1
		c-0.8,0-1.6-0.2-2.3-0.5C9.1,48.3,8.9,48,8.9,47.6z M9.3,16.3c0-0.4,0.3-0.8,0.7-0.9c0.6-0.2,1.2-0.3,1.9-0.3h0.4c0.6,0,1,0.4,1,1
		c0,0.6-0.4,1-1,1h-0.4c-0.4,0-0.8,0.1-1.2,0.2c-0.5,0.2-1.1-0.1-1.3-0.6C9.3,16.5,9.3,16.4,9.3,16.3z M14.9,48c0-0.6,0.4-1,1-1h2
		c0.6,0,1,0.4,1,1s-0.4,1-1,1h-2C15.3,49,14.9,48.6,14.9,48z M15.2,16c0-0.6,0.4-1,1-1h2c0.6,0,1,0.4,1,1s-0.4,1-1,1h-2
		C15.7,17,15.2,16.6,15.2,16z M20.9,48c0-0.6,0.4-1,1-1h2c0.6,0,1,0.4,1,1s-0.4,1-1,1h-2C21.3,49,20.9,48.6,20.9,48z M21.2,16
		c0-0.6,0.4-1,1-1h2c0.6,0,1,0.4,1,1s-0.4,1-1,1h-2C21.7,17,21.2,16.6,21.2,16z M26.8,48c0-0.6,0.4-1,1-1h2c0.6,0,1,0.4,1,1
		s-0.4,1-1,1h-2C27.3,49,26.8,48.6,26.8,48z M27.2,16c0-0.6,0.4-1,1-1h2c0.6,0,1,0.4,1,1s-0.4,1-1,1h-2C27.7,17,27.2,16.6,27.2,16z
		 M32.8,48c0-0.6,0.4-1,1-1h2c0.6,0,1,0.4,1,1s-0.4,1-1,1h-2C33.3,49,32.8,48.6,32.8,48z M33.2,16c0-0.6,0.4-1,1-1h2
		c0.6,0,1,0.4,1,1s-0.4,1-1,1h-2C33.6,17,33.2,16.6,33.2,16z M38.8,48c0-0.6,0.4-1,1-1h2c0.6,0,1,0.4,1,1s-0.4,1-1,1h-2
		C39.3,49,38.8,48.6,38.8,48z M39.2,16c0-0.6,0.4-1,1-1h2c0.6,0,1,0.4,1,1s-0.4,1-1,1h-2C39.6,17,39.2,16.6,39.2,16z M44.8,48
		c0-0.6,0.4-1,1-1h2c0.6,0,1,0.4,1,1s-0.4,1-1,1h-2C45.2,49,44.8,48.6,44.8,48z M45.2,16c0-0.6,0.4-1,1-1h2c0.6,0,1,0.4,1,1
		s-0.4,1-1,1h-2C45.6,17,45.2,16.6,45.2,16z M50.8,48c0-0.6,0.4-1,1-1h0.4c0.4,0,0.8-0.1,1.2-0.2c0.5-0.2,1.1,0.1,1.3,0.6
		c0.2,0.5-0.1,1.1-0.6,1.3c-0.6,0.2-1.2,0.3-1.9,0.3h-0.4C51.2,49,50.8,48.6,50.8,48z M51.2,16c0-0.6,0.4-1,1-1h0
		c0.8,0,1.6,0.2,2.3,0.5c0.5,0.2,0.7,0.8,0.5,1.3c-0.2,0.5-0.8,0.7-1.3,0.5c-0.5-0.2-1-0.3-1.5-0.3C51.6,17,51.2,16.6,51.2,16z
		 M55.6,45.1c0-0.1,0-0.3,0.1-0.4c0.2-0.5,0.3-1,0.3-1.5c0-0.6,0.4-1,1-1s1,0.4,1,1v0c0,0.8-0.2,1.6-0.5,2.3
		c-0.2,0.5-0.8,0.7-1.3,0.5C55.8,45.9,55.6,45.5,55.6,45.1z M55.7,19.2c0-0.4,0.3-0.8,0.7-0.9c0.5-0.2,1.1,0.1,1.3,0.6
		c0.2,0.6,0.3,1.3,0.3,1.9v0.4c0,0.6-0.4,1-1,1s-1-0.4-1-1v-0.4c0-0.4-0.1-0.8-0.2-1.2C55.8,19.5,55.7,19.3,55.7,19.2z M56,39.2v-2
		c0-0.6,0.4-1,1-1s1,0.4,1,1v2c0,0.6-0.4,1-1,1S56,39.7,56,39.2z M56,33.2v-2c0-0.6,0.4-1,1-1s1,0.4,1,1v2c0,0.6-0.4,1-1,1
		S56,33.7,56,33.2z M56,27.2v-2c0-0.6,0.4-1,1-1s1,0.4,1,1v2c0,0.6-0.4,1-1,1S56,27.7,56,27.2z"/>
</g>
<g>
	<path class="st1" d="M53,23c1.7,0,3,1.3,3,3v12c0,1.7-1.3,3-3,3H11c-1.7,0-3-1.3-3-3V26c0-1.7,1.3-3,3-3H53 M53,21H11
		c-2.8,0-5,2.3-5,5v12c0,2.8,2.3,5,5,5h42c2.8,0,5-2.3,5-5V26C58,23.3,55.8,21,53,21L53,21z"/>
</g>
</svg>
