<?xml version="1.0" encoding="iso-8859-1"?>
<!-- Generator: Adobe Illustrator 17.0.1, SVG Export Plug-In . SVG Version: 6.00 Build 0)  -->
<!DOCTYPE svg PUBLIC "-//W3C//DTD SVG 1.1//EN" "http://www.w3.org/Graphics/SVG/1.1/DTD/svg11.dtd">
<svg version="1.1" id="Layer_1" xmlns="http://www.w3.org/2000/svg" xmlns:xlink="http://www.w3.org/1999/xlink" x="0px" y="0px"
	 width="64px" height="64px" viewBox="0 0 64 64" style="enable-background:new 0 0 64 64;" xml:space="preserve">
<g id="icon-m-headphone">
	<rect id="icon-m-headphone_1_" style="opacity:0;fill:#FFFFFF;" width="64" height="64"/>
	<g>
		<path style="opacity:0.6;fill:#FFFFFF;" d="M50.325,41.49c-0.162,0-0.327-0.039-0.479-0.123c-0.484-0.265-0.662-0.873-0.396-1.357
			c1.604-2.929,2.451-6.251,2.451-9.609c0-11.048-8.987-20.037-20.035-20.037S11.829,19.352,11.829,30.4
			c0,3.356,0.848,6.68,2.452,9.609c0.266,0.484,0.088,1.093-0.396,1.357c-0.486,0.267-1.092,0.088-1.357-0.396
			c-1.765-3.224-2.698-6.879-2.698-10.57c0-12.151,9.885-22.037,22.036-22.037c12.15,0,22.035,9.886,22.035,22.037
			c0,3.692-0.933,7.348-2.697,10.57C51.021,41.303,50.679,41.49,50.325,41.49z"/>
		<path style="fill:#FFFFFF;" d="M21.098,53.635c-2.033,0-3.849-1.208-4.627-3.078l-3.881-9.325
			c-1.059-2.545,0.15-5.478,2.695-6.537l1.335-0.556c0.609-0.254,1.252-0.383,1.91-0.383c2.033,0,3.85,1.208,4.627,3.078
			l3.881,9.324c1.06,2.545-0.149,5.478-2.695,6.537l-1.335,0.557C22.398,53.506,21.756,53.635,21.098,53.635z M18.53,35.756
			c-0.393,0-0.777,0.077-1.142,0.229l-1.335,0.556c-1.527,0.637-2.253,2.396-1.617,3.924l3.881,9.325
			c0.466,1.121,1.558,1.846,2.78,1.846c0.393,0,0.777-0.077,1.142-0.229l1.335-0.557c1.528-0.637,2.253-2.396,1.617-3.923
			l-3.881-9.325C20.845,36.48,19.753,35.756,18.53,35.756z"/>
		<path style="fill:#FFFFFF;" d="M42.705,53.635L42.705,53.635c-0.658,0-1.301-0.129-1.91-0.383l-1.336-0.557
			c-1.229-0.511-2.186-1.474-2.696-2.712c-0.51-1.238-0.509-2.597,0.003-3.826l3.88-9.323c0.778-1.87,2.595-3.078,4.627-3.078
			c0.658,0,1.301,0.129,1.911,0.383l1.335,0.556c2.545,1.06,3.754,3.992,2.694,6.538l-3.881,9.324
			C46.554,52.427,44.737,53.635,42.705,53.635z M45.272,35.756c-1.223,0-2.314,0.725-2.781,1.847l-3.88,9.323
			c-0.306,0.736-0.306,1.552,0.001,2.295c0.307,0.744,0.88,1.322,1.615,1.629l1.337,0.557c0.364,0.151,0.748,0.229,1.141,0.229
			c1.223,0,2.313-0.725,2.781-1.847l3.881-9.324c0.306-0.736,0.306-1.551-0.001-2.295s-0.881-1.322-1.617-1.629l-1.335-0.556
			C46.05,35.833,45.666,35.756,45.272,35.756z"/>
	</g>
</g>
</svg>
