<?xml version="1.0" encoding="utf-8"?>
<!-- Generator: Adobe Illustrator 26.2.1, SVG Export Plug-In . SVG Version: 6.00 Build 0)  -->
<svg version="1.1" id="Layer_1" xmlns="http://www.w3.org/2000/svg" xmlns:xlink="http://www.w3.org/1999/xlink" x="0px" y="0px"
	 viewBox="0 0 64 64" style="enable-background:new 0 0 64 64;" xml:space="preserve">
<style type="text/css">
	.st0{opacity:0.6;fill-rule:evenodd;clip-rule:evenodd;fill:#FFFFFF;}
	.st1{fill:#FFFFFF;}
</style>
<path class="st0" d="M52,14H12c-2.2,0-4,1.8-4,4v28c0,2.2,1.8,4,4,4h40c2.2,0,4-1.8,4-4V18C56,15.8,54.2,14,52,14z M12,12
	c-3.3,0-6,2.7-6,6v28c0,3.3,2.7,6,6,6h40c3.3,0,6-2.7,6-6V18c0-3.3-2.7-6-6-6H12z"/>
<g>
	<path class="st1" d="M19.3,32c0-5.1,3-8.2,7-8.2c1.9,0,3.4,0.9,4.4,1.9l-1.1,1.4c-0.8-0.9-1.9-1.5-3.2-1.5c-2.9,0-4.9,2.4-4.9,6.3
		c0,3.9,1.9,6.4,4.8,6.4c1.5,0,2.6-0.7,3.6-1.8l1.1,1.3c-1.2,1.4-2.8,2.3-4.8,2.3C22.2,40.2,19.3,37.1,19.3,32z"/>
	<path class="st1" d="M33,32c0-5.1,3-8.2,7-8.2c1.9,0,3.4,0.9,4.4,1.9l-1.1,1.4c-0.8-0.9-1.9-1.5-3.2-1.5c-2.9,0-4.9,2.4-4.9,6.3
		c0,3.9,1.9,6.4,4.8,6.4c1.5,0,2.6-0.7,3.6-1.8l1.1,1.3c-1.2,1.4-2.8,2.3-4.8,2.3C36,40.2,33,37.1,33,32z"/>
</g>
</svg>
